# Tiled2Unity generated file. Do not modify by hand.
# Wavefront file for 'firstMapS_mesh_0001.obj'

# Vertices (Count = 432)
v -24 -3 0
v -25 -3 0
v -25 -2 0
v -24 -2 0
v -25 -3 0
v -26 -3 0
v -26 -2 0
v -25 -2 0
v -26 -3 0
v -27 -3 0
v -27 -2 0
v -26 -2 0
v -27 -3 0
v -28 -3 0
v -28 -2 0
v -27 -2 0
v -28 -3 0
v -29 -3 0
v -29 -2 0
v -28 -2 0
v -29 -3 0
v -30 -3 0
v -30 -2 0
v -29 -2 0
v -24 -4 0
v -25 -4 0
v -25 -3 0
v -24 -3 0
v -25 -4 0
v -26 -4 0
v -26 -3 0
v -25 -3 0
v -26 -4 0
v -27 -4 0
v -27 -3 0
v -26 -3 0
v -27 -4 0
v -28 -4 0
v -28 -3 0
v -27 -3 0
v -28 -4 0
v -29 -4 0
v -29 -3 0
v -28 -3 0
v -29 -4 0
v -30 -4 0
v -30 -3 0
v -29 -3 0
v -58 -4 0
v -59 -4 0
v -59 -3 0
v -58 -3 0
v -59 -4 0
v -60 -4 0
v -60 -3 0
v -59 -3 0
v -60 -4 0
v -61 -4 0
v -61 -3 0
v -60 -3 0
v -61 -4 0
v -62 -4 0
v -62 -3 0
v -61 -3 0
v -62 -4 0
v -63 -4 0
v -63 -3 0
v -62 -3 0
v -63 -4 0
v -64 -4 0
v -64 -3 0
v -63 -3 0
v -24 -5 0
v -25 -5 0
v -25 -4 0
v -24 -4 0
v -25 -5 0
v -26 -5 0
v -26 -4 0
v -25 -4 0
v -26 -5 0
v -27 -5 0
v -27 -4 0
v -26 -4 0
v -27 -5 0
v -28 -5 0
v -28 -4 0
v -27 -4 0
v -28 -5 0
v -29 -5 0
v -29 -4 0
v -28 -4 0
v -29 -5 0
v -30 -5 0
v -30 -4 0
v -29 -4 0
v -58 -5 0
v -59 -5 0
v -59 -4 0
v -58 -4 0
v -59 -5 0
v -60 -5 0
v -60 -4 0
v -59 -4 0
v -60 -5 0
v -61 -5 0
v -61 -4 0
v -60 -4 0
v -61 -5 0
v -62 -5 0
v -62 -4 0
v -61 -4 0
v -62 -5 0
v -63 -5 0
v -63 -4 0
v -62 -4 0
v -63 -5 0
v -64 -5 0
v -64 -4 0
v -63 -4 0
v -24 -6 0
v -25 -6 0
v -25 -5 0
v -24 -5 0
v -25 -6 0
v -26 -6 0
v -26 -5 0
v -25 -5 0
v -26 -6 0
v -27 -6 0
v -27 -5 0
v -26 -5 0
v -27 -6 0
v -28 -6 0
v -28 -5 0
v -27 -5 0
v -28 -6 0
v -29 -6 0
v -29 -5 0
v -28 -5 0
v -29 -6 0
v -30 -6 0
v -30 -5 0
v -29 -5 0
v -58 -6 0
v -59 -6 0
v -59 -5 0
v -58 -5 0
v -59 -6 0
v -60 -6 0
v -60 -5 0
v -59 -5 0
v -60 -6 0
v -61 -6 0
v -61 -5 0
v -60 -5 0
v -61 -6 0
v -62 -6 0
v -62 -5 0
v -61 -5 0
v -62 -6 0
v -63 -6 0
v -63 -5 0
v -62 -5 0
v -63 -6 0
v -64 -6 0
v -64 -5 0
v -63 -5 0
v -24 -7 0
v -25 -7 0
v -25 -6 0
v -24 -6 0
v -25 -7 0
v -26 -7 0
v -26 -6 0
v -25 -6 0
v -26 -7 0
v -27 -7 0
v -27 -6 0
v -26 -6 0
v -27 -7 0
v -28 -7 0
v -28 -6 0
v -27 -6 0
v -28 -7 0
v -29 -7 0
v -29 -6 0
v -28 -6 0
v -29 -7 0
v -30 -7 0
v -30 -6 0
v -29 -6 0
v -58 -7 0
v -59 -7 0
v -59 -6 0
v -58 -6 0
v -59 -7 0
v -60 -7 0
v -60 -6 0
v -59 -6 0
v -60 -7 0
v -61 -7 0
v -61 -6 0
v -60 -6 0
v -61 -7 0
v -62 -7 0
v -62 -6 0
v -61 -6 0
v -62 -7 0
v -63 -7 0
v -63 -6 0
v -62 -6 0
v -63 -7 0
v -64 -7 0
v -64 -6 0
v -63 -6 0
v -24 -8 0
v -25 -8 0
v -25 -7 0
v -24 -7 0
v -25 -8 0
v -26 -8 0
v -26 -7 0
v -25 -7 0
v -26 -8 0
v -27 -8 0
v -27 -7 0
v -26 -7 0
v -27 -8 0
v -28 -8 0
v -28 -7 0
v -27 -7 0
v -28 -8 0
v -29 -8 0
v -29 -7 0
v -28 -7 0
v -29 -8 0
v -30 -8 0
v -30 -7 0
v -29 -7 0
v -58 -8 0
v -59 -8 0
v -59 -7 0
v -58 -7 0
v -59 -8 0
v -60 -8 0
v -60 -7 0
v -59 -7 0
v -60 -8 0
v -61 -8 0
v -61 -7 0
v -60 -7 0
v -61 -8 0
v -62 -8 0
v -62 -7 0
v -61 -7 0
v -62 -8 0
v -63 -8 0
v -63 -7 0
v -62 -7 0
v -63 -8 0
v -64 -8 0
v -64 -7 0
v -63 -7 0
v -24 -9 0
v -25 -9 0
v -25 -8 0
v -24 -8 0
v -25 -9 0
v -26 -9 0
v -26 -8 0
v -25 -8 0
v -26 -9 0
v -27 -9 0
v -27 -8 0
v -26 -8 0
v -27 -9 0
v -28 -9 0
v -28 -8 0
v -27 -8 0
v -28 -9 0
v -29 -9 0
v -29 -8 0
v -28 -8 0
v -29 -9 0
v -30 -9 0
v -30 -8 0
v -29 -8 0
v -58 -9 0
v -59 -9 0
v -59 -8 0
v -58 -8 0
v -59 -9 0
v -60 -9 0
v -60 -8 0
v -59 -8 0
v -60 -9 0
v -61 -9 0
v -61 -8 0
v -60 -8 0
v -61 -9 0
v -62 -9 0
v -62 -8 0
v -61 -8 0
v -62 -9 0
v -63 -9 0
v -63 -8 0
v -62 -8 0
v -63 -9 0
v -64 -9 0
v -64 -8 0
v -63 -8 0
v -24 -10 0
v -25 -10 0
v -25 -9 0
v -24 -9 0
v -25 -10 0
v -26 -10 0
v -26 -9 0
v -25 -9 0
v -26 -10 0
v -27 -10 0
v -27 -9 0
v -26 -9 0
v -27 -10 0
v -28 -10 0
v -28 -9 0
v -27 -9 0
v -28 -10 0
v -29 -10 0
v -29 -9 0
v -28 -9 0
v -29 -10 0
v -30 -10 0
v -30 -9 0
v -29 -9 0
v -58 -10 0
v -59 -10 0
v -59 -9 0
v -58 -9 0
v -59 -10 0
v -60 -10 0
v -60 -9 0
v -59 -9 0
v -60 -10 0
v -61 -10 0
v -61 -9 0
v -60 -9 0
v -61 -10 0
v -62 -10 0
v -62 -9 0
v -61 -9 0
v -62 -10 0
v -63 -10 0
v -63 -9 0
v -62 -9 0
v -63 -10 0
v -64 -10 0
v -64 -9 0
v -63 -9 0
v -24 -11 0
v -25 -11 0
v -25 -10 0
v -24 -10 0
v -25 -11 0
v -26 -11 0
v -26 -10 0
v -25 -10 0
v -26 -11 0
v -27 -11 0
v -27 -10 0
v -26 -10 0
v -27 -11 0
v -28 -11 0
v -28 -10 0
v -27 -10 0
v -28 -11 0
v -29 -11 0
v -29 -10 0
v -28 -10 0
v -29 -11 0
v -30 -11 0
v -30 -10 0
v -29 -10 0
v -58 -11 0
v -59 -11 0
v -59 -10 0
v -58 -10 0
v -59 -11 0
v -60 -11 0
v -60 -10 0
v -59 -10 0
v -60 -11 0
v -61 -11 0
v -61 -10 0
v -60 -10 0
v -61 -11 0
v -62 -11 0
v -62 -10 0
v -61 -10 0
v -62 -11 0
v -63 -11 0
v -63 -10 0
v -62 -10 0
v -63 -11 0
v -64 -11 0
v -64 -10 0
v -63 -10 0
v -58 -12 0
v -59 -12 0
v -59 -11 0
v -58 -11 0
v -59 -12 0
v -60 -12 0
v -60 -11 0
v -59 -11 0
v -60 -12 0
v -61 -12 0
v -61 -11 0
v -60 -11 0
v -61 -12 0
v -62 -12 0
v -62 -11 0
v -61 -11 0
v -62 -12 0
v -63 -12 0
v -63 -11 0
v -62 -11 0
v -63 -12 0
v -64 -12 0
v -64 -11 0
v -63 -11 0

# Texture cooridinates (Count = 70)
vt 0 0.8888889
vt 0.1666667 0.8888889
vt 0.1666667 1
vt 0 1
vt 0.3333333 0.8888889
vt 0.3333333 1
vt 0.5 0.8888889
vt 0.5 1
vt 0.6666667 0.8888889
vt 0.6666667 1
vt 0.8333333 0.8888889
vt 0.8333333 1
vt 1 0.8888889
vt 1 1
vt 0 0.7777778
vt 0.1666667 0.7777778
vt 0.3333333 0.7777778
vt 0.5 0.7777778
vt 0.6666667 0.7777778
vt 0.8333333 0.7777778
vt 1 0.7777778
vt 0 0.6666666
vt 0.1666667 0.6666666
vt 0.3333333 0.6666666
vt 0.5 0.6666666
vt 0.6666667 0.6666666
vt 0.8333333 0.6666666
vt 1 0.6666666
vt 0 0.5555556
vt 0.1666667 0.5555556
vt 0.3333333 0.5555556
vt 0.5 0.5555556
vt 0.6666667 0.5555556
vt 0.8333333 0.5555556
vt 1 0.5555556
vt 0 0.4444444
vt 0.1666667 0.4444444
vt 0.3333333 0.4444444
vt 0.5 0.4444444
vt 0.6666667 0.4444444
vt 0.8333333 0.4444444
vt 1 0.4444444
vt 0 0.3333333
vt 0.1666667 0.3333333
vt 0.3333333 0.3333333
vt 0.5 0.3333333
vt 0.6666667 0.3333333
vt 0.8333333 0.3333333
vt 1 0.3333333
vt 0 0.2222222
vt 0.1666667 0.2222222
vt 0.3333333 0.2222222
vt 0.5 0.2222222
vt 0.6666667 0.2222222
vt 0.8333333 0.2222222
vt 1 0.2222222
vt 0 0.1111111
vt 0.1666667 0.1111111
vt 0.3333333 0.1111111
vt 0.5 0.1111111
vt 0.6666667 0.1111111
vt 0.8333333 0.1111111
vt 1 0.1111111
vt 0 0
vt 0.1666667 0
vt 0.3333333 0
vt 0.5 0
vt 0.6666667 0
vt 0.8333333 0
vt 1 0

# Normal
vn 0 0 -1

# Mesh description
g firstMapS_mesh_0001

# Faces
f 1/1/1 2/2/1 3/3/1 4/4/1
f 5/2/1 6/5/1 7/6/1 8/3/1
f 9/5/1 10/7/1 11/8/1 12/6/1
f 13/7/1 14/9/1 15/10/1 16/8/1
f 17/9/1 18/11/1 19/12/1 20/10/1
f 21/11/1 22/13/1 23/14/1 24/12/1
f 25/15/1 26/16/1 27/2/1 28/1/1
f 29/16/1 30/17/1 31/5/1 32/2/1
f 33/17/1 34/18/1 35/7/1 36/5/1
f 37/18/1 38/19/1 39/9/1 40/7/1
f 41/19/1 42/20/1 43/11/1 44/9/1
f 45/20/1 46/21/1 47/13/1 48/11/1
f 49/1/1 50/2/1 51/3/1 52/4/1
f 53/2/1 54/5/1 55/6/1 56/3/1
f 57/5/1 58/7/1 59/8/1 60/6/1
f 61/7/1 62/9/1 63/10/1 64/8/1
f 65/9/1 66/11/1 67/12/1 68/10/1
f 69/11/1 70/13/1 71/14/1 72/12/1
f 73/22/1 74/23/1 75/16/1 76/15/1
f 77/23/1 78/24/1 79/17/1 80/16/1
f 81/24/1 82/25/1 83/18/1 84/17/1
f 85/25/1 86/26/1 87/19/1 88/18/1
f 89/26/1 90/27/1 91/20/1 92/19/1
f 93/27/1 94/28/1 95/21/1 96/20/1
f 97/15/1 98/16/1 99/2/1 100/1/1
f 101/16/1 102/17/1 103/5/1 104/2/1
f 105/17/1 106/18/1 107/7/1 108/5/1
f 109/18/1 110/19/1 111/9/1 112/7/1
f 113/19/1 114/20/1 115/11/1 116/9/1
f 117/20/1 118/21/1 119/13/1 120/11/1
f 121/29/1 122/30/1 123/23/1 124/22/1
f 125/30/1 126/31/1 127/24/1 128/23/1
f 129/31/1 130/32/1 131/25/1 132/24/1
f 133/32/1 134/33/1 135/26/1 136/25/1
f 137/33/1 138/34/1 139/27/1 140/26/1
f 141/34/1 142/35/1 143/28/1 144/27/1
f 145/22/1 146/23/1 147/16/1 148/15/1
f 149/23/1 150/24/1 151/17/1 152/16/1
f 153/24/1 154/25/1 155/18/1 156/17/1
f 157/25/1 158/26/1 159/19/1 160/18/1
f 161/26/1 162/27/1 163/20/1 164/19/1
f 165/27/1 166/28/1 167/21/1 168/20/1
f 169/36/1 170/37/1 171/30/1 172/29/1
f 173/37/1 174/38/1 175/31/1 176/30/1
f 177/38/1 178/39/1 179/32/1 180/31/1
f 181/39/1 182/40/1 183/33/1 184/32/1
f 185/40/1 186/41/1 187/34/1 188/33/1
f 189/41/1 190/42/1 191/35/1 192/34/1
f 193/29/1 194/30/1 195/23/1 196/22/1
f 197/30/1 198/31/1 199/24/1 200/23/1
f 201/31/1 202/32/1 203/25/1 204/24/1
f 205/32/1 206/33/1 207/26/1 208/25/1
f 209/33/1 210/34/1 211/27/1 212/26/1
f 213/34/1 214/35/1 215/28/1 216/27/1
f 217/43/1 218/44/1 219/37/1 220/36/1
f 221/44/1 222/45/1 223/38/1 224/37/1
f 225/45/1 226/46/1 227/39/1 228/38/1
f 229/46/1 230/47/1 231/40/1 232/39/1
f 233/47/1 234/48/1 235/41/1 236/40/1
f 237/48/1 238/49/1 239/42/1 240/41/1
f 241/36/1 242/37/1 243/30/1 244/29/1
f 245/37/1 246/38/1 247/31/1 248/30/1
f 249/38/1 250/39/1 251/32/1 252/31/1
f 253/39/1 254/40/1 255/33/1 256/32/1
f 257/40/1 258/41/1 259/34/1 260/33/1
f 261/41/1 262/42/1 263/35/1 264/34/1
f 265/50/1 266/51/1 267/44/1 268/43/1
f 269/51/1 270/52/1 271/45/1 272/44/1
f 273/52/1 274/53/1 275/46/1 276/45/1
f 277/53/1 278/54/1 279/47/1 280/46/1
f 281/54/1 282/55/1 283/48/1 284/47/1
f 285/55/1 286/56/1 287/49/1 288/48/1
f 289/43/1 290/44/1 291/37/1 292/36/1
f 293/44/1 294/45/1 295/38/1 296/37/1
f 297/45/1 298/46/1 299/39/1 300/38/1
f 301/46/1 302/47/1 303/40/1 304/39/1
f 305/47/1 306/48/1 307/41/1 308/40/1
f 309/48/1 310/49/1 311/42/1 312/41/1
f 313/57/1 314/58/1 315/51/1 316/50/1
f 317/58/1 318/59/1 319/52/1 320/51/1
f 321/59/1 322/60/1 323/53/1 324/52/1
f 325/60/1 326/61/1 327/54/1 328/53/1
f 329/61/1 330/62/1 331/55/1 332/54/1
f 333/62/1 334/63/1 335/56/1 336/55/1
f 337/50/1 338/51/1 339/44/1 340/43/1
f 341/51/1 342/52/1 343/45/1 344/44/1
f 345/52/1 346/53/1 347/46/1 348/45/1
f 349/53/1 350/54/1 351/47/1 352/46/1
f 353/54/1 354/55/1 355/48/1 356/47/1
f 357/55/1 358/56/1 359/49/1 360/48/1
f 361/64/1 362/65/1 363/58/1 364/57/1
f 365/65/1 366/66/1 367/59/1 368/58/1
f 369/66/1 370/67/1 371/60/1 372/59/1
f 373/67/1 374/68/1 375/61/1 376/60/1
f 377/68/1 378/69/1 379/62/1 380/61/1
f 381/69/1 382/70/1 383/63/1 384/62/1
f 385/57/1 386/58/1 387/51/1 388/50/1
f 389/58/1 390/59/1 391/52/1 392/51/1
f 393/59/1 394/60/1 395/53/1 396/52/1
f 397/60/1 398/61/1 399/54/1 400/53/1
f 401/61/1 402/62/1 403/55/1 404/54/1
f 405/62/1 406/63/1 407/56/1 408/55/1
f 409/64/1 410/65/1 411/58/1 412/57/1
f 413/65/1 414/66/1 415/59/1 416/58/1
f 417/66/1 418/67/1 419/60/1 420/59/1
f 421/67/1 422/68/1 423/61/1 424/60/1
f 425/68/1 426/69/1 427/62/1 428/61/1
f 429/69/1 430/70/1 431/63/1 432/62/1

